<mxfile host="app.diagrams.net" agent="Mozilla/5.0 (Windows NT 10.0; Win64; x64) AppleWebKit/537.36 (KHTML, like Gecko) Chrome/133.0.0.0 Safari/537.36" version="26.0.16">
  <diagram name="Page-1" id="i5tifkxqL2qFLtLCvqDo">
    <mxGraphModel dx="2265" dy="643" grid="1" gridSize="10" guides="1" tooltips="1" connect="1" arrows="1" fold="1" page="1" pageScale="1" pageWidth="827" pageHeight="1169" math="0" shadow="0">
      <root>
        <mxCell id="0" />
        <mxCell id="1" parent="0" />
        <mxCell id="hqUX3ECjdQeUj9T4MXPY-1" value="&lt;p style=&quot;margin:0px;margin-top:4px;margin-left:7px;text-align:left;&quot;&gt;&lt;span&gt;req&lt;/span&gt;&amp;nbsp;[requirement] Requirement IHM&lt;/p&gt;" style="html=1;shape=mxgraph.sysml.package;overflow=fill;labelX=218.33;strokeWidth=2;align=center;fontStyle=1" vertex="1" parent="1">
          <mxGeometry x="-490" y="320" width="1870" height="800" as="geometry" />
        </mxCell>
        <mxCell id="hqUX3ECjdQeUj9T4MXPY-2" value="" style="fontStyle=1;align=center;verticalAlign=middle;childLayout=stackLayout;horizontal=1;horizontalStack=0;resizeParent=1;resizeParentMax=0;resizeLast=0;marginBottom=0;" vertex="1" parent="1">
          <mxGeometry x="252" y="350" width="200" height="142" as="geometry" />
        </mxCell>
        <mxCell id="hqUX3ECjdQeUj9T4MXPY-3" value="&amp;lt;&amp;lt;requirement&amp;gt;&amp;gt;" style="html=1;align=center;spacing=0;verticalAlign=middle;strokeColor=none;fillColor=none;whiteSpace=wrap;spacingTop=3;" vertex="1" parent="hqUX3ECjdQeUj9T4MXPY-2">
          <mxGeometry width="200" height="16" as="geometry" />
        </mxCell>
        <mxCell id="hqUX3ECjdQeUj9T4MXPY-4" value="IHM" style="html=1;align=center;spacing=0;verticalAlign=middle;strokeColor=none;fillColor=none;whiteSpace=wrap;fontStyle=1" vertex="1" parent="hqUX3ECjdQeUj9T4MXPY-2">
          <mxGeometry y="16" width="200" height="18" as="geometry" />
        </mxCell>
        <mxCell id="hqUX3ECjdQeUj9T4MXPY-5" value="" style="line;strokeWidth=0.25;fillColor=none;align=left;verticalAlign=middle;spacingTop=-1;spacingLeft=3;spacingRight=3;rotatable=0;labelPosition=right;points=[];portConstraint=eastwest;" vertex="1" parent="hqUX3ECjdQeUj9T4MXPY-2">
          <mxGeometry y="34" width="200" height="8" as="geometry" />
        </mxCell>
        <mxCell id="hqUX3ECjdQeUj9T4MXPY-6" value="text=&quot;Une IHM est nécessaire pour que l&#39;opérateur puisse observer des données pertinentes&quot;" style="html=1;align=left;spacing=0;verticalAlign=middle;strokeColor=none;fillColor=none;whiteSpace=wrap;spacingLeft=10;" vertex="1" parent="hqUX3ECjdQeUj9T4MXPY-2">
          <mxGeometry y="42" width="200" height="58" as="geometry" />
        </mxCell>
        <mxCell id="hqUX3ECjdQeUj9T4MXPY-7" value="Id=&quot;5&quot;" style="html=1;align=left;spacing=0;verticalAlign=middle;strokeColor=none;fillColor=none;whiteSpace=wrap;spacingLeft=10;" vertex="1" parent="hqUX3ECjdQeUj9T4MXPY-2">
          <mxGeometry y="100" width="200" height="16" as="geometry" />
        </mxCell>
        <mxCell id="hqUX3ECjdQeUj9T4MXPY-8" value="" style="html=1;align=center;spacing=0;verticalAlign=middle;strokeColor=none;fillColor=none;whiteSpace=wrap;" vertex="1" parent="hqUX3ECjdQeUj9T4MXPY-2">
          <mxGeometry y="116" width="200" height="26" as="geometry" />
        </mxCell>
        <mxCell id="hqUX3ECjdQeUj9T4MXPY-10" value="" style="fontStyle=1;align=center;verticalAlign=middle;childLayout=stackLayout;horizontal=1;horizontalStack=0;resizeParent=1;resizeParentMax=0;resizeLast=0;marginBottom=0;" vertex="1" parent="1">
          <mxGeometry x="252" y="514" width="168" height="142" as="geometry" />
        </mxCell>
        <mxCell id="hqUX3ECjdQeUj9T4MXPY-11" value="&amp;lt;&amp;lt;requirement&amp;gt;&amp;gt;" style="html=1;align=center;spacing=0;verticalAlign=middle;strokeColor=none;fillColor=none;whiteSpace=wrap;spacingTop=3;" vertex="1" parent="hqUX3ECjdQeUj9T4MXPY-10">
          <mxGeometry width="168" height="16" as="geometry" />
        </mxCell>
        <mxCell id="hqUX3ECjdQeUj9T4MXPY-12" value="Afficher des données" style="html=1;align=center;spacing=0;verticalAlign=middle;strokeColor=none;fillColor=none;whiteSpace=wrap;fontStyle=1" vertex="1" parent="hqUX3ECjdQeUj9T4MXPY-10">
          <mxGeometry y="16" width="168" height="18" as="geometry" />
        </mxCell>
        <mxCell id="hqUX3ECjdQeUj9T4MXPY-13" value="" style="line;strokeWidth=0.25;fillColor=none;align=left;verticalAlign=middle;spacingTop=-1;spacingLeft=3;spacingRight=3;rotatable=0;labelPosition=right;points=[];portConstraint=eastwest;" vertex="1" parent="hqUX3ECjdQeUj9T4MXPY-10">
          <mxGeometry y="34" width="168" height="8" as="geometry" />
        </mxCell>
        <mxCell id="hqUX3ECjdQeUj9T4MXPY-14" value="text=&quot;L&#39;IHM doit afficher des données de météorologiques et de terrain&quot;" style="html=1;align=left;spacing=0;verticalAlign=middle;strokeColor=none;fillColor=none;whiteSpace=wrap;spacingLeft=10;" vertex="1" parent="hqUX3ECjdQeUj9T4MXPY-10">
          <mxGeometry y="42" width="168" height="58" as="geometry" />
        </mxCell>
        <mxCell id="hqUX3ECjdQeUj9T4MXPY-15" value="Id=&quot;5.1&quot;" style="html=1;align=left;spacing=0;verticalAlign=middle;strokeColor=none;fillColor=none;whiteSpace=wrap;spacingLeft=10;" vertex="1" parent="hqUX3ECjdQeUj9T4MXPY-10">
          <mxGeometry y="100" width="168" height="16" as="geometry" />
        </mxCell>
        <mxCell id="hqUX3ECjdQeUj9T4MXPY-16" value="" style="html=1;align=center;spacing=0;verticalAlign=middle;strokeColor=none;fillColor=none;whiteSpace=wrap;" vertex="1" parent="hqUX3ECjdQeUj9T4MXPY-10">
          <mxGeometry y="116" width="168" height="26" as="geometry" />
        </mxCell>
        <mxCell id="hqUX3ECjdQeUj9T4MXPY-18" value="" style="fontStyle=1;align=center;verticalAlign=middle;childLayout=stackLayout;horizontal=1;horizontalStack=0;resizeParent=1;resizeParentMax=0;resizeLast=0;marginBottom=0;" vertex="1" parent="1">
          <mxGeometry x="-460" y="710" width="140" height="142" as="geometry" />
        </mxCell>
        <mxCell id="hqUX3ECjdQeUj9T4MXPY-19" value="&amp;lt;&amp;lt;requirement&amp;gt;&amp;gt;" style="html=1;align=center;spacing=0;verticalAlign=middle;strokeColor=none;fillColor=none;whiteSpace=wrap;spacingTop=3;" vertex="1" parent="hqUX3ECjdQeUj9T4MXPY-18">
          <mxGeometry width="140" height="16" as="geometry" />
        </mxCell>
        <mxCell id="hqUX3ECjdQeUj9T4MXPY-20" value="Température de l&#39;air" style="html=1;align=center;spacing=0;verticalAlign=middle;strokeColor=none;fillColor=none;whiteSpace=wrap;fontStyle=1" vertex="1" parent="hqUX3ECjdQeUj9T4MXPY-18">
          <mxGeometry y="16" width="140" height="18" as="geometry" />
        </mxCell>
        <mxCell id="hqUX3ECjdQeUj9T4MXPY-21" value="" style="line;strokeWidth=0.25;fillColor=none;align=left;verticalAlign=middle;spacingTop=-1;spacingLeft=3;spacingRight=3;rotatable=0;labelPosition=right;points=[];portConstraint=eastwest;" vertex="1" parent="hqUX3ECjdQeUj9T4MXPY-18">
          <mxGeometry y="34" width="140" height="8" as="geometry" />
        </mxCell>
        <mxCell id="hqUX3ECjdQeUj9T4MXPY-22" value="text=&quot;L&#39;IHM doit afficher la température de l&#39;air à 0.5°C près&quot;" style="html=1;align=left;spacing=0;verticalAlign=middle;strokeColor=none;fillColor=none;whiteSpace=wrap;spacingLeft=10;" vertex="1" parent="hqUX3ECjdQeUj9T4MXPY-18">
          <mxGeometry y="42" width="140" height="58" as="geometry" />
        </mxCell>
        <mxCell id="hqUX3ECjdQeUj9T4MXPY-23" value="Id=&quot;5.1.1&quot;" style="html=1;align=left;spacing=0;verticalAlign=middle;strokeColor=none;fillColor=none;whiteSpace=wrap;spacingLeft=10;" vertex="1" parent="hqUX3ECjdQeUj9T4MXPY-18">
          <mxGeometry y="100" width="140" height="16" as="geometry" />
        </mxCell>
        <mxCell id="hqUX3ECjdQeUj9T4MXPY-24" value="" style="html=1;align=center;spacing=0;verticalAlign=middle;strokeColor=none;fillColor=none;whiteSpace=wrap;" vertex="1" parent="hqUX3ECjdQeUj9T4MXPY-18">
          <mxGeometry y="116" width="140" height="26" as="geometry" />
        </mxCell>
        <mxCell id="hqUX3ECjdQeUj9T4MXPY-32" value="" style="fontStyle=1;align=center;verticalAlign=middle;childLayout=stackLayout;horizontal=1;horizontalStack=0;resizeParent=1;resizeParentMax=0;resizeLast=0;marginBottom=0;" vertex="1" parent="1">
          <mxGeometry x="-100" y="710" width="170" height="122" as="geometry" />
        </mxCell>
        <mxCell id="hqUX3ECjdQeUj9T4MXPY-33" value="&amp;lt;&amp;lt;requirement&amp;gt;&amp;gt;" style="html=1;align=center;spacing=0;verticalAlign=middle;strokeColor=none;fillColor=none;whiteSpace=wrap;spacingTop=3;" vertex="1" parent="hqUX3ECjdQeUj9T4MXPY-32">
          <mxGeometry width="170" height="16" as="geometry" />
        </mxCell>
        <mxCell id="hqUX3ECjdQeUj9T4MXPY-34" value="Hygrométrie" style="html=1;align=center;spacing=0;verticalAlign=middle;strokeColor=none;fillColor=none;whiteSpace=wrap;fontStyle=1" vertex="1" parent="hqUX3ECjdQeUj9T4MXPY-32">
          <mxGeometry y="16" width="170" height="18" as="geometry" />
        </mxCell>
        <mxCell id="hqUX3ECjdQeUj9T4MXPY-35" value="" style="line;strokeWidth=0.25;fillColor=none;align=left;verticalAlign=middle;spacingTop=-1;spacingLeft=3;spacingRight=3;rotatable=0;labelPosition=right;points=[];portConstraint=eastwest;" vertex="1" parent="hqUX3ECjdQeUj9T4MXPY-32">
          <mxGeometry y="34" width="170" height="8" as="geometry" />
        </mxCell>
        <mxCell id="hqUX3ECjdQeUj9T4MXPY-36" value="text=&quot;L&#39;IHM doit afficher l&#39;hygrométrie en pourcentage&quot;" style="html=1;align=left;spacing=0;verticalAlign=middle;strokeColor=none;fillColor=none;whiteSpace=wrap;spacingLeft=10;" vertex="1" parent="hqUX3ECjdQeUj9T4MXPY-32">
          <mxGeometry y="42" width="170" height="38" as="geometry" />
        </mxCell>
        <mxCell id="hqUX3ECjdQeUj9T4MXPY-37" value="Id=&quot;5.1.3&quot;" style="html=1;align=left;spacing=0;verticalAlign=middle;strokeColor=none;fillColor=none;whiteSpace=wrap;spacingLeft=10;" vertex="1" parent="hqUX3ECjdQeUj9T4MXPY-32">
          <mxGeometry y="80" width="170" height="16" as="geometry" />
        </mxCell>
        <mxCell id="hqUX3ECjdQeUj9T4MXPY-38" value="" style="html=1;align=center;spacing=0;verticalAlign=middle;strokeColor=none;fillColor=none;whiteSpace=wrap;" vertex="1" parent="hqUX3ECjdQeUj9T4MXPY-32">
          <mxGeometry y="96" width="170" height="26" as="geometry" />
        </mxCell>
        <mxCell id="hqUX3ECjdQeUj9T4MXPY-39" value="" style="fontStyle=1;align=center;verticalAlign=middle;childLayout=stackLayout;horizontal=1;horizontalStack=0;resizeParent=1;resizeParentMax=0;resizeLast=0;marginBottom=0;" vertex="1" parent="1">
          <mxGeometry x="90" y="710" width="150" height="132" as="geometry" />
        </mxCell>
        <mxCell id="hqUX3ECjdQeUj9T4MXPY-40" value="&amp;lt;&amp;lt;requirement&amp;gt;&amp;gt;" style="html=1;align=center;spacing=0;verticalAlign=middle;strokeColor=none;fillColor=none;whiteSpace=wrap;spacingTop=3;" vertex="1" parent="hqUX3ECjdQeUj9T4MXPY-39">
          <mxGeometry width="150" height="16" as="geometry" />
        </mxCell>
        <mxCell id="hqUX3ECjdQeUj9T4MXPY-41" value="Pluviométrie" style="html=1;align=center;spacing=0;verticalAlign=middle;strokeColor=none;fillColor=none;whiteSpace=wrap;fontStyle=1" vertex="1" parent="hqUX3ECjdQeUj9T4MXPY-39">
          <mxGeometry y="16" width="150" height="18" as="geometry" />
        </mxCell>
        <mxCell id="hqUX3ECjdQeUj9T4MXPY-42" value="" style="line;strokeWidth=0.25;fillColor=none;align=left;verticalAlign=middle;spacingTop=-1;spacingLeft=3;spacingRight=3;rotatable=0;labelPosition=right;points=[];portConstraint=eastwest;" vertex="1" parent="hqUX3ECjdQeUj9T4MXPY-39">
          <mxGeometry y="34" width="150" height="8" as="geometry" />
        </mxCell>
        <mxCell id="hqUX3ECjdQeUj9T4MXPY-43" value="text=&quot;L&#39;IHM doit afficher la pluviométrie sur 24h ou 7j en mm&quot;" style="html=1;align=left;spacing=0;verticalAlign=middle;strokeColor=none;fillColor=none;whiteSpace=wrap;spacingLeft=10;" vertex="1" parent="hqUX3ECjdQeUj9T4MXPY-39">
          <mxGeometry y="42" width="150" height="48" as="geometry" />
        </mxCell>
        <mxCell id="hqUX3ECjdQeUj9T4MXPY-44" value="Id=&quot;5.1.4&quot;" style="html=1;align=left;spacing=0;verticalAlign=middle;strokeColor=none;fillColor=none;whiteSpace=wrap;spacingLeft=10;" vertex="1" parent="hqUX3ECjdQeUj9T4MXPY-39">
          <mxGeometry y="90" width="150" height="16" as="geometry" />
        </mxCell>
        <mxCell id="hqUX3ECjdQeUj9T4MXPY-45" value="" style="html=1;align=center;spacing=0;verticalAlign=middle;strokeColor=none;fillColor=none;whiteSpace=wrap;" vertex="1" parent="hqUX3ECjdQeUj9T4MXPY-39">
          <mxGeometry y="106" width="150" height="26" as="geometry" />
        </mxCell>
        <mxCell id="hqUX3ECjdQeUj9T4MXPY-46" value="" style="fontStyle=1;align=center;verticalAlign=middle;childLayout=stackLayout;horizontal=1;horizontalStack=0;resizeParent=1;resizeParentMax=0;resizeLast=0;marginBottom=0;" vertex="1" parent="1">
          <mxGeometry x="260" y="710" width="150" height="132" as="geometry" />
        </mxCell>
        <mxCell id="hqUX3ECjdQeUj9T4MXPY-47" value="&amp;lt;&amp;lt;requirement&amp;gt;&amp;gt;" style="html=1;align=center;spacing=0;verticalAlign=middle;strokeColor=none;fillColor=none;whiteSpace=wrap;spacingTop=3;" vertex="1" parent="hqUX3ECjdQeUj9T4MXPY-46">
          <mxGeometry width="150" height="16" as="geometry" />
        </mxCell>
        <mxCell id="hqUX3ECjdQeUj9T4MXPY-48" value="Evapotranspiration" style="html=1;align=center;spacing=0;verticalAlign=middle;strokeColor=none;fillColor=none;whiteSpace=wrap;fontStyle=1" vertex="1" parent="hqUX3ECjdQeUj9T4MXPY-46">
          <mxGeometry y="16" width="150" height="18" as="geometry" />
        </mxCell>
        <mxCell id="hqUX3ECjdQeUj9T4MXPY-49" value="" style="line;strokeWidth=0.25;fillColor=none;align=left;verticalAlign=middle;spacingTop=-1;spacingLeft=3;spacingRight=3;rotatable=0;labelPosition=right;points=[];portConstraint=eastwest;" vertex="1" parent="hqUX3ECjdQeUj9T4MXPY-46">
          <mxGeometry y="34" width="150" height="8" as="geometry" />
        </mxCell>
        <mxCell id="hqUX3ECjdQeUj9T4MXPY-50" value="text=&quot;L&#39;IHM doit afficher l&#39;évapotranspiration en mm/j&quot;" style="html=1;align=left;spacing=0;verticalAlign=middle;strokeColor=none;fillColor=none;whiteSpace=wrap;spacingLeft=10;" vertex="1" parent="hqUX3ECjdQeUj9T4MXPY-46">
          <mxGeometry y="42" width="150" height="48" as="geometry" />
        </mxCell>
        <mxCell id="hqUX3ECjdQeUj9T4MXPY-51" value="Id=&quot;5.1.5&quot;" style="html=1;align=left;spacing=0;verticalAlign=middle;strokeColor=none;fillColor=none;whiteSpace=wrap;spacingLeft=10;" vertex="1" parent="hqUX3ECjdQeUj9T4MXPY-46">
          <mxGeometry y="90" width="150" height="16" as="geometry" />
        </mxCell>
        <mxCell id="hqUX3ECjdQeUj9T4MXPY-52" value="" style="html=1;align=center;spacing=0;verticalAlign=middle;strokeColor=none;fillColor=none;whiteSpace=wrap;" vertex="1" parent="hqUX3ECjdQeUj9T4MXPY-46">
          <mxGeometry y="106" width="150" height="26" as="geometry" />
        </mxCell>
        <mxCell id="hqUX3ECjdQeUj9T4MXPY-53" value="" style="fontStyle=1;align=center;verticalAlign=middle;childLayout=stackLayout;horizontal=1;horizontalStack=0;resizeParent=1;resizeParentMax=0;resizeLast=0;marginBottom=0;" vertex="1" parent="1">
          <mxGeometry x="-300" y="710" width="170" height="132" as="geometry" />
        </mxCell>
        <mxCell id="hqUX3ECjdQeUj9T4MXPY-54" value="&amp;lt;&amp;lt;requirement&amp;gt;&amp;gt;" style="html=1;align=center;spacing=0;verticalAlign=middle;strokeColor=none;fillColor=none;whiteSpace=wrap;spacingTop=3;" vertex="1" parent="hqUX3ECjdQeUj9T4MXPY-53">
          <mxGeometry width="170" height="16" as="geometry" />
        </mxCell>
        <mxCell id="hqUX3ECjdQeUj9T4MXPY-55" value="Humidité terrain" style="html=1;align=center;spacing=0;verticalAlign=middle;strokeColor=none;fillColor=none;whiteSpace=wrap;fontStyle=1" vertex="1" parent="hqUX3ECjdQeUj9T4MXPY-53">
          <mxGeometry y="16" width="170" height="18" as="geometry" />
        </mxCell>
        <mxCell id="hqUX3ECjdQeUj9T4MXPY-56" value="" style="line;strokeWidth=0.25;fillColor=none;align=left;verticalAlign=middle;spacingTop=-1;spacingLeft=3;spacingRight=3;rotatable=0;labelPosition=right;points=[];portConstraint=eastwest;" vertex="1" parent="hqUX3ECjdQeUj9T4MXPY-53">
          <mxGeometry y="34" width="170" height="8" as="geometry" />
        </mxCell>
        <mxCell id="hqUX3ECjdQeUj9T4MXPY-57" value="text=&quot;L&#39;IHM doit afficher L&#39;humidité du terrain total en pourcentage&quot;" style="html=1;align=left;spacing=0;verticalAlign=middle;strokeColor=none;fillColor=none;whiteSpace=wrap;spacingLeft=10;" vertex="1" parent="hqUX3ECjdQeUj9T4MXPY-53">
          <mxGeometry y="42" width="170" height="48" as="geometry" />
        </mxCell>
        <mxCell id="hqUX3ECjdQeUj9T4MXPY-58" value="Id=&quot;5.1.2&quot;" style="html=1;align=left;spacing=0;verticalAlign=middle;strokeColor=none;fillColor=none;whiteSpace=wrap;spacingLeft=10;" vertex="1" parent="hqUX3ECjdQeUj9T4MXPY-53">
          <mxGeometry y="90" width="170" height="16" as="geometry" />
        </mxCell>
        <mxCell id="hqUX3ECjdQeUj9T4MXPY-59" value="" style="html=1;align=center;spacing=0;verticalAlign=middle;strokeColor=none;fillColor=none;whiteSpace=wrap;" vertex="1" parent="hqUX3ECjdQeUj9T4MXPY-53">
          <mxGeometry y="106" width="170" height="26" as="geometry" />
        </mxCell>
        <mxCell id="hqUX3ECjdQeUj9T4MXPY-60" value="" style="fontStyle=1;align=center;verticalAlign=middle;childLayout=stackLayout;horizontal=1;horizontalStack=0;resizeParent=1;resizeParentMax=0;resizeLast=0;marginBottom=0;" vertex="1" parent="1">
          <mxGeometry x="430" y="710" width="140" height="122" as="geometry" />
        </mxCell>
        <mxCell id="hqUX3ECjdQeUj9T4MXPY-61" value="&amp;lt;&amp;lt;requirement&amp;gt;&amp;gt;" style="html=1;align=center;spacing=0;verticalAlign=middle;strokeColor=none;fillColor=none;whiteSpace=wrap;spacingTop=3;" vertex="1" parent="hqUX3ECjdQeUj9T4MXPY-60">
          <mxGeometry width="140" height="16" as="geometry" />
        </mxCell>
        <mxCell id="hqUX3ECjdQeUj9T4MXPY-62" value="Prévision météo" style="html=1;align=center;spacing=0;verticalAlign=middle;strokeColor=none;fillColor=none;whiteSpace=wrap;fontStyle=1" vertex="1" parent="hqUX3ECjdQeUj9T4MXPY-60">
          <mxGeometry y="16" width="140" height="18" as="geometry" />
        </mxCell>
        <mxCell id="hqUX3ECjdQeUj9T4MXPY-63" value="" style="line;strokeWidth=0.25;fillColor=none;align=left;verticalAlign=middle;spacingTop=-1;spacingLeft=3;spacingRight=3;rotatable=0;labelPosition=right;points=[];portConstraint=eastwest;" vertex="1" parent="hqUX3ECjdQeUj9T4MXPY-60">
          <mxGeometry y="34" width="140" height="8" as="geometry" />
        </mxCell>
        <mxCell id="hqUX3ECjdQeUj9T4MXPY-64" value="text=&quot;L&#39;IHM doit afficher une prévision météo&quot;" style="html=1;align=left;spacing=0;verticalAlign=middle;strokeColor=none;fillColor=none;whiteSpace=wrap;spacingLeft=10;" vertex="1" parent="hqUX3ECjdQeUj9T4MXPY-60">
          <mxGeometry y="42" width="140" height="38" as="geometry" />
        </mxCell>
        <mxCell id="hqUX3ECjdQeUj9T4MXPY-65" value="Id=&quot;5.1.6&quot;" style="html=1;align=left;spacing=0;verticalAlign=middle;strokeColor=none;fillColor=none;whiteSpace=wrap;spacingLeft=10;" vertex="1" parent="hqUX3ECjdQeUj9T4MXPY-60">
          <mxGeometry y="80" width="140" height="16" as="geometry" />
        </mxCell>
        <mxCell id="hqUX3ECjdQeUj9T4MXPY-66" value="" style="html=1;align=center;spacing=0;verticalAlign=middle;strokeColor=none;fillColor=none;whiteSpace=wrap;" vertex="1" parent="hqUX3ECjdQeUj9T4MXPY-60">
          <mxGeometry y="96" width="140" height="26" as="geometry" />
        </mxCell>
        <mxCell id="hqUX3ECjdQeUj9T4MXPY-67" value="" style="fontStyle=1;align=center;verticalAlign=middle;childLayout=stackLayout;horizontal=1;horizontalStack=0;resizeParent=1;resizeParentMax=0;resizeLast=0;marginBottom=0;" vertex="1" parent="1">
          <mxGeometry x="890" y="710" width="140" height="182" as="geometry" />
        </mxCell>
        <mxCell id="hqUX3ECjdQeUj9T4MXPY-68" value="&amp;lt;&amp;lt;requirement&amp;gt;&amp;gt;" style="html=1;align=center;spacing=0;verticalAlign=middle;strokeColor=none;fillColor=none;whiteSpace=wrap;spacingTop=3;" vertex="1" parent="hqUX3ECjdQeUj9T4MXPY-67">
          <mxGeometry width="140" height="16" as="geometry" />
        </mxCell>
        <mxCell id="hqUX3ECjdQeUj9T4MXPY-69" value="Carte du terrain" style="html=1;align=center;spacing=0;verticalAlign=middle;strokeColor=none;fillColor=none;whiteSpace=wrap;fontStyle=1" vertex="1" parent="hqUX3ECjdQeUj9T4MXPY-67">
          <mxGeometry y="16" width="140" height="18" as="geometry" />
        </mxCell>
        <mxCell id="hqUX3ECjdQeUj9T4MXPY-70" value="" style="line;strokeWidth=0.25;fillColor=none;align=left;verticalAlign=middle;spacingTop=-1;spacingLeft=3;spacingRight=3;rotatable=0;labelPosition=right;points=[];portConstraint=eastwest;" vertex="1" parent="hqUX3ECjdQeUj9T4MXPY-67">
          <mxGeometry y="34" width="140" height="8" as="geometry" />
        </mxCell>
        <mxCell id="hqUX3ECjdQeUj9T4MXPY-71" value="text=&quot;L&#39;IHM doit afficher une carte de l&#39;hippodrome contenant plusieurs informations à certains points de la carte&quot;" style="html=1;align=left;spacing=0;verticalAlign=middle;strokeColor=none;fillColor=none;whiteSpace=wrap;spacingLeft=10;" vertex="1" parent="hqUX3ECjdQeUj9T4MXPY-67">
          <mxGeometry y="42" width="140" height="98" as="geometry" />
        </mxCell>
        <mxCell id="hqUX3ECjdQeUj9T4MXPY-72" value="Id=&quot;5.1.9&quot;" style="html=1;align=left;spacing=0;verticalAlign=middle;strokeColor=none;fillColor=none;whiteSpace=wrap;spacingLeft=10;" vertex="1" parent="hqUX3ECjdQeUj9T4MXPY-67">
          <mxGeometry y="140" width="140" height="16" as="geometry" />
        </mxCell>
        <mxCell id="hqUX3ECjdQeUj9T4MXPY-73" value="" style="html=1;align=center;spacing=0;verticalAlign=middle;strokeColor=none;fillColor=none;whiteSpace=wrap;" vertex="1" parent="hqUX3ECjdQeUj9T4MXPY-67">
          <mxGeometry y="156" width="140" height="26" as="geometry" />
        </mxCell>
        <mxCell id="hqUX3ECjdQeUj9T4MXPY-74" value="" style="fontStyle=1;align=center;verticalAlign=middle;childLayout=stackLayout;horizontal=1;horizontalStack=0;resizeParent=1;resizeParentMax=0;resizeLast=0;marginBottom=0;" vertex="1" parent="1">
          <mxGeometry x="740" y="930" width="180" height="152" as="geometry" />
        </mxCell>
        <mxCell id="hqUX3ECjdQeUj9T4MXPY-75" value="&amp;lt;&amp;lt;requirement&amp;gt;&amp;gt;" style="html=1;align=center;spacing=0;verticalAlign=middle;strokeColor=none;fillColor=none;whiteSpace=wrap;spacingTop=3;" vertex="1" parent="hqUX3ECjdQeUj9T4MXPY-74">
          <mxGeometry width="180" height="16" as="geometry" />
        </mxCell>
        <mxCell id="hqUX3ECjdQeUj9T4MXPY-76" value="Humidité du sol" style="html=1;align=center;spacing=0;verticalAlign=middle;strokeColor=none;fillColor=none;whiteSpace=wrap;fontStyle=1" vertex="1" parent="hqUX3ECjdQeUj9T4MXPY-74">
          <mxGeometry y="16" width="180" height="18" as="geometry" />
        </mxCell>
        <mxCell id="hqUX3ECjdQeUj9T4MXPY-77" value="" style="line;strokeWidth=0.25;fillColor=none;align=left;verticalAlign=middle;spacingTop=-1;spacingLeft=3;spacingRight=3;rotatable=0;labelPosition=right;points=[];portConstraint=eastwest;" vertex="1" parent="hqUX3ECjdQeUj9T4MXPY-74">
          <mxGeometry y="34" width="180" height="8" as="geometry" />
        </mxCell>
        <mxCell id="hqUX3ECjdQeUj9T4MXPY-78" value="text=&quot;L&#39;humidité du sol devra être affichée en pourcentage, la couleur de l&#39;écriture changera en fonction de la valeur&quot;" style="html=1;align=left;spacing=0;verticalAlign=middle;strokeColor=none;fillColor=none;whiteSpace=wrap;spacingLeft=10;" vertex="1" parent="hqUX3ECjdQeUj9T4MXPY-74">
          <mxGeometry y="42" width="180" height="68" as="geometry" />
        </mxCell>
        <mxCell id="hqUX3ECjdQeUj9T4MXPY-79" value="Id=&quot;5.1.9.1&quot;" style="html=1;align=left;spacing=0;verticalAlign=middle;strokeColor=none;fillColor=none;whiteSpace=wrap;spacingLeft=10;" vertex="1" parent="hqUX3ECjdQeUj9T4MXPY-74">
          <mxGeometry y="110" width="180" height="16" as="geometry" />
        </mxCell>
        <mxCell id="hqUX3ECjdQeUj9T4MXPY-80" value="" style="html=1;align=center;spacing=0;verticalAlign=middle;strokeColor=none;fillColor=none;whiteSpace=wrap;" vertex="1" parent="hqUX3ECjdQeUj9T4MXPY-74">
          <mxGeometry y="126" width="180" height="26" as="geometry" />
        </mxCell>
        <mxCell id="hqUX3ECjdQeUj9T4MXPY-81" value="" style="fontStyle=1;align=center;verticalAlign=middle;childLayout=stackLayout;horizontal=1;horizontalStack=0;resizeParent=1;resizeParentMax=0;resizeLast=0;marginBottom=0;" vertex="1" parent="1">
          <mxGeometry x="1020" y="930" width="150" height="132" as="geometry" />
        </mxCell>
        <mxCell id="hqUX3ECjdQeUj9T4MXPY-82" value="&amp;lt;&amp;lt;requirement&amp;gt;&amp;gt;" style="html=1;align=center;spacing=0;verticalAlign=middle;strokeColor=none;fillColor=none;whiteSpace=wrap;spacingTop=3;" vertex="1" parent="hqUX3ECjdQeUj9T4MXPY-81">
          <mxGeometry width="150" height="16" as="geometry" />
        </mxCell>
        <mxCell id="hqUX3ECjdQeUj9T4MXPY-83" value="Etat du terrain" style="html=1;align=center;spacing=0;verticalAlign=middle;strokeColor=none;fillColor=none;whiteSpace=wrap;fontStyle=1" vertex="1" parent="hqUX3ECjdQeUj9T4MXPY-81">
          <mxGeometry y="16" width="150" height="18" as="geometry" />
        </mxCell>
        <mxCell id="hqUX3ECjdQeUj9T4MXPY-84" value="" style="line;strokeWidth=0.25;fillColor=none;align=left;verticalAlign=middle;spacingTop=-1;spacingLeft=3;spacingRight=3;rotatable=0;labelPosition=right;points=[];portConstraint=eastwest;" vertex="1" parent="hqUX3ECjdQeUj9T4MXPY-81">
          <mxGeometry y="34" width="150" height="8" as="geometry" />
        </mxCell>
        <mxCell id="hqUX3ECjdQeUj9T4MXPY-85" value="text=&quot;L&#39;état du terrain sera affiché sous une couleur&quot;" style="html=1;align=left;spacing=0;verticalAlign=middle;strokeColor=none;fillColor=none;whiteSpace=wrap;spacingLeft=10;" vertex="1" parent="hqUX3ECjdQeUj9T4MXPY-81">
          <mxGeometry y="42" width="150" height="48" as="geometry" />
        </mxCell>
        <mxCell id="hqUX3ECjdQeUj9T4MXPY-86" value="Id=&quot;5.1.9.2&quot;" style="html=1;align=left;spacing=0;verticalAlign=middle;strokeColor=none;fillColor=none;whiteSpace=wrap;spacingLeft=10;" vertex="1" parent="hqUX3ECjdQeUj9T4MXPY-81">
          <mxGeometry y="90" width="150" height="16" as="geometry" />
        </mxCell>
        <mxCell id="hqUX3ECjdQeUj9T4MXPY-87" value="" style="html=1;align=center;spacing=0;verticalAlign=middle;strokeColor=none;fillColor=none;whiteSpace=wrap;" vertex="1" parent="hqUX3ECjdQeUj9T4MXPY-81">
          <mxGeometry y="106" width="150" height="26" as="geometry" />
        </mxCell>
        <mxCell id="hqUX3ECjdQeUj9T4MXPY-88" value="" style="fontStyle=1;align=center;verticalAlign=middle;childLayout=stackLayout;horizontal=1;horizontalStack=0;resizeParent=1;resizeParentMax=0;resizeLast=0;marginBottom=0;" vertex="1" parent="1">
          <mxGeometry x="1200" y="710" width="150" height="126" as="geometry" />
        </mxCell>
        <mxCell id="hqUX3ECjdQeUj9T4MXPY-89" value="&amp;lt;&amp;lt;requirement&amp;gt;&amp;gt;" style="html=1;align=center;spacing=0;verticalAlign=middle;strokeColor=none;fillColor=none;whiteSpace=wrap;spacingTop=3;" vertex="1" parent="hqUX3ECjdQeUj9T4MXPY-88">
          <mxGeometry width="150" height="16" as="geometry" />
        </mxCell>
        <mxCell id="hqUX3ECjdQeUj9T4MXPY-90" value="Moyenne de l&#39;état du terrain" style="html=1;align=center;spacing=0;verticalAlign=middle;strokeColor=none;fillColor=none;whiteSpace=wrap;fontStyle=1" vertex="1" parent="hqUX3ECjdQeUj9T4MXPY-88">
          <mxGeometry y="16" width="150" height="34" as="geometry" />
        </mxCell>
        <mxCell id="hqUX3ECjdQeUj9T4MXPY-91" value="" style="line;strokeWidth=0.25;fillColor=none;align=left;verticalAlign=middle;spacingTop=-1;spacingLeft=3;spacingRight=3;rotatable=0;labelPosition=right;points=[];portConstraint=eastwest;" vertex="1" parent="hqUX3ECjdQeUj9T4MXPY-88">
          <mxGeometry y="50" width="150" height="8" as="geometry" />
        </mxCell>
        <mxCell id="hqUX3ECjdQeUj9T4MXPY-92" value="text=&quot;L&#39;IHM devra afficher l&#39;état moyen du terrain&quot;" style="html=1;align=left;spacing=0;verticalAlign=middle;strokeColor=none;fillColor=none;whiteSpace=wrap;spacingLeft=10;" vertex="1" parent="hqUX3ECjdQeUj9T4MXPY-88">
          <mxGeometry y="58" width="150" height="38" as="geometry" />
        </mxCell>
        <mxCell id="hqUX3ECjdQeUj9T4MXPY-93" value="Id=&quot;5.1.11&quot;" style="html=1;align=left;spacing=0;verticalAlign=middle;strokeColor=none;fillColor=none;whiteSpace=wrap;spacingLeft=10;" vertex="1" parent="hqUX3ECjdQeUj9T4MXPY-88">
          <mxGeometry y="96" width="150" height="16" as="geometry" />
        </mxCell>
        <mxCell id="hqUX3ECjdQeUj9T4MXPY-94" value="" style="html=1;align=center;spacing=0;verticalAlign=middle;strokeColor=none;fillColor=none;whiteSpace=wrap;" vertex="1" parent="hqUX3ECjdQeUj9T4MXPY-88">
          <mxGeometry y="112" width="150" height="14" as="geometry" />
        </mxCell>
        <mxCell id="hqUX3ECjdQeUj9T4MXPY-95" value="" style="fontStyle=1;align=center;verticalAlign=middle;childLayout=stackLayout;horizontal=1;horizontalStack=0;resizeParent=1;resizeParentMax=0;resizeLast=0;marginBottom=0;" vertex="1" parent="1">
          <mxGeometry x="1050" y="710" width="130" height="150" as="geometry" />
        </mxCell>
        <mxCell id="hqUX3ECjdQeUj9T4MXPY-96" value="&amp;lt;&amp;lt;requirement&amp;gt;&amp;gt;" style="html=1;align=center;spacing=0;verticalAlign=middle;strokeColor=none;fillColor=none;whiteSpace=wrap;spacingTop=3;" vertex="1" parent="hqUX3ECjdQeUj9T4MXPY-95">
          <mxGeometry width="130" height="16" as="geometry" />
        </mxCell>
        <mxCell id="hqUX3ECjdQeUj9T4MXPY-97" value="Moyenne de l&#39;état du terrain par piste" style="html=1;align=center;spacing=0;verticalAlign=middle;strokeColor=none;fillColor=none;whiteSpace=wrap;fontStyle=1" vertex="1" parent="hqUX3ECjdQeUj9T4MXPY-95">
          <mxGeometry y="16" width="130" height="34" as="geometry" />
        </mxCell>
        <mxCell id="hqUX3ECjdQeUj9T4MXPY-98" value="" style="line;strokeWidth=0.25;fillColor=none;align=left;verticalAlign=middle;spacingTop=-1;spacingLeft=3;spacingRight=3;rotatable=0;labelPosition=right;points=[];portConstraint=eastwest;" vertex="1" parent="hqUX3ECjdQeUj9T4MXPY-95">
          <mxGeometry y="50" width="130" height="8" as="geometry" />
        </mxCell>
        <mxCell id="hqUX3ECjdQeUj9T4MXPY-99" value="text=&quot;L&#39;IHM devra afficher l&#39;état moyen de chaque piste&quot;" style="html=1;align=left;spacing=0;verticalAlign=middle;strokeColor=none;fillColor=none;whiteSpace=wrap;spacingLeft=10;" vertex="1" parent="hqUX3ECjdQeUj9T4MXPY-95">
          <mxGeometry y="58" width="130" height="62" as="geometry" />
        </mxCell>
        <mxCell id="hqUX3ECjdQeUj9T4MXPY-100" value="Id=&quot;5.1.10&quot;" style="html=1;align=left;spacing=0;verticalAlign=middle;strokeColor=none;fillColor=none;whiteSpace=wrap;spacingLeft=10;" vertex="1" parent="hqUX3ECjdQeUj9T4MXPY-95">
          <mxGeometry y="120" width="130" height="16" as="geometry" />
        </mxCell>
        <mxCell id="hqUX3ECjdQeUj9T4MXPY-101" value="" style="html=1;align=center;spacing=0;verticalAlign=middle;strokeColor=none;fillColor=none;whiteSpace=wrap;" vertex="1" parent="hqUX3ECjdQeUj9T4MXPY-95">
          <mxGeometry y="136" width="130" height="14" as="geometry" />
        </mxCell>
        <mxCell id="hqUX3ECjdQeUj9T4MXPY-102" value="" style="fontStyle=1;align=center;verticalAlign=middle;childLayout=stackLayout;horizontal=1;horizontalStack=0;resizeParent=1;resizeParentMax=0;resizeLast=0;marginBottom=0;" vertex="1" parent="1">
          <mxGeometry x="590" y="710" width="130" height="120" as="geometry" />
        </mxCell>
        <mxCell id="hqUX3ECjdQeUj9T4MXPY-103" value="&amp;lt;&amp;lt;requirement&amp;gt;&amp;gt;" style="html=1;align=center;spacing=0;verticalAlign=middle;strokeColor=none;fillColor=none;whiteSpace=wrap;spacingTop=3;" vertex="1" parent="hqUX3ECjdQeUj9T4MXPY-102">
          <mxGeometry width="130" height="16" as="geometry" />
        </mxCell>
        <mxCell id="hqUX3ECjdQeUj9T4MXPY-104" value="Vitesse du vent" style="html=1;align=center;spacing=0;verticalAlign=middle;strokeColor=none;fillColor=none;whiteSpace=wrap;fontStyle=1" vertex="1" parent="hqUX3ECjdQeUj9T4MXPY-102">
          <mxGeometry y="16" width="130" height="14" as="geometry" />
        </mxCell>
        <mxCell id="hqUX3ECjdQeUj9T4MXPY-105" value="" style="line;strokeWidth=0.25;fillColor=none;align=left;verticalAlign=middle;spacingTop=-1;spacingLeft=3;spacingRight=3;rotatable=0;labelPosition=right;points=[];portConstraint=eastwest;" vertex="1" parent="hqUX3ECjdQeUj9T4MXPY-102">
          <mxGeometry y="30" width="130" height="8" as="geometry" />
        </mxCell>
        <mxCell id="hqUX3ECjdQeUj9T4MXPY-106" value="text=&quot;L&#39;IHM devra afficher la vitesse du vent en km/h&quot;" style="html=1;align=left;spacing=0;verticalAlign=middle;strokeColor=none;fillColor=none;whiteSpace=wrap;spacingLeft=10;" vertex="1" parent="hqUX3ECjdQeUj9T4MXPY-102">
          <mxGeometry y="38" width="130" height="52" as="geometry" />
        </mxCell>
        <mxCell id="hqUX3ECjdQeUj9T4MXPY-107" value="Id=&quot;5.1.7&quot;" style="html=1;align=left;spacing=0;verticalAlign=middle;strokeColor=none;fillColor=none;whiteSpace=wrap;spacingLeft=10;" vertex="1" parent="hqUX3ECjdQeUj9T4MXPY-102">
          <mxGeometry y="90" width="130" height="16" as="geometry" />
        </mxCell>
        <mxCell id="hqUX3ECjdQeUj9T4MXPY-108" value="" style="html=1;align=center;spacing=0;verticalAlign=middle;strokeColor=none;fillColor=none;whiteSpace=wrap;" vertex="1" parent="hqUX3ECjdQeUj9T4MXPY-102">
          <mxGeometry y="106" width="130" height="14" as="geometry" />
        </mxCell>
        <mxCell id="hqUX3ECjdQeUj9T4MXPY-111" value="" style="fontStyle=1;align=center;verticalAlign=middle;childLayout=stackLayout;horizontal=1;horizontalStack=0;resizeParent=1;resizeParentMax=0;resizeLast=0;marginBottom=0;" vertex="1" parent="1">
          <mxGeometry x="740" y="710" width="130" height="130" as="geometry" />
        </mxCell>
        <mxCell id="hqUX3ECjdQeUj9T4MXPY-112" value="&amp;lt;&amp;lt;requirement&amp;gt;&amp;gt;" style="html=1;align=center;spacing=0;verticalAlign=middle;strokeColor=none;fillColor=none;whiteSpace=wrap;spacingTop=3;" vertex="1" parent="hqUX3ECjdQeUj9T4MXPY-111">
          <mxGeometry width="130" height="16" as="geometry" />
        </mxCell>
        <mxCell id="hqUX3ECjdQeUj9T4MXPY-113" value="Direction du vent" style="html=1;align=center;spacing=0;verticalAlign=middle;strokeColor=none;fillColor=none;whiteSpace=wrap;fontStyle=1" vertex="1" parent="hqUX3ECjdQeUj9T4MXPY-111">
          <mxGeometry y="16" width="130" height="14" as="geometry" />
        </mxCell>
        <mxCell id="hqUX3ECjdQeUj9T4MXPY-114" value="" style="line;strokeWidth=0.25;fillColor=none;align=left;verticalAlign=middle;spacingTop=-1;spacingLeft=3;spacingRight=3;rotatable=0;labelPosition=right;points=[];portConstraint=eastwest;" vertex="1" parent="hqUX3ECjdQeUj9T4MXPY-111">
          <mxGeometry y="30" width="130" height="8" as="geometry" />
        </mxCell>
        <mxCell id="hqUX3ECjdQeUj9T4MXPY-115" value="text=&quot;L&#39;IHM devra afficher la direction du vent à 45° près&quot;" style="html=1;align=left;spacing=0;verticalAlign=middle;strokeColor=none;fillColor=none;whiteSpace=wrap;spacingLeft=10;" vertex="1" parent="hqUX3ECjdQeUj9T4MXPY-111">
          <mxGeometry y="38" width="130" height="62" as="geometry" />
        </mxCell>
        <mxCell id="hqUX3ECjdQeUj9T4MXPY-116" value="Id=&quot;5.1.8&quot;" style="html=1;align=left;spacing=0;verticalAlign=middle;strokeColor=none;fillColor=none;whiteSpace=wrap;spacingLeft=10;" vertex="1" parent="hqUX3ECjdQeUj9T4MXPY-111">
          <mxGeometry y="100" width="130" height="16" as="geometry" />
        </mxCell>
        <mxCell id="hqUX3ECjdQeUj9T4MXPY-117" value="" style="html=1;align=center;spacing=0;verticalAlign=middle;strokeColor=none;fillColor=none;whiteSpace=wrap;" vertex="1" parent="hqUX3ECjdQeUj9T4MXPY-111">
          <mxGeometry y="116" width="130" height="14" as="geometry" />
        </mxCell>
        <mxCell id="hqUX3ECjdQeUj9T4MXPY-118" value="" style="rounded=0;html=1;labelBackgroundColor=none;endArrow=none;edgeStyle=elbowEdgeStyle;elbow=vertical;startArrow=sysMLPackCont;startSize=12;exitX=0.5;exitY=1;exitDx=0;exitDy=0;entryX=0.5;entryY=0;entryDx=0;entryDy=0;" edge="1" parent="1" source="hqUX3ECjdQeUj9T4MXPY-8" target="hqUX3ECjdQeUj9T4MXPY-11">
          <mxGeometry relative="1" as="geometry">
            <mxPoint x="1280" y="632" as="sourcePoint" />
            <mxPoint x="375" y="700" as="targetPoint" />
          </mxGeometry>
        </mxCell>
        <mxCell id="hqUX3ECjdQeUj9T4MXPY-119" value="" style="rounded=0;html=1;labelBackgroundColor=none;endArrow=none;edgeStyle=elbowEdgeStyle;elbow=vertical;startArrow=sysMLPackCont;startSize=12;exitX=0.5;exitY=1;exitDx=0;exitDy=0;entryX=0.5;entryY=0;entryDx=0;entryDy=0;" edge="1" parent="1" source="hqUX3ECjdQeUj9T4MXPY-16" target="hqUX3ECjdQeUj9T4MXPY-19">
          <mxGeometry relative="1" as="geometry">
            <mxPoint x="362" y="502" as="sourcePoint" />
            <mxPoint x="-130" y="524" as="targetPoint" />
          </mxGeometry>
        </mxCell>
        <mxCell id="hqUX3ECjdQeUj9T4MXPY-121" value="" style="rounded=0;html=1;labelBackgroundColor=none;endArrow=none;edgeStyle=elbowEdgeStyle;elbow=vertical;startArrow=sysMLPackCont;startSize=12;exitX=0.5;exitY=1;exitDx=0;exitDy=0;entryX=0.5;entryY=0;entryDx=0;entryDy=0;" edge="1" parent="1" source="hqUX3ECjdQeUj9T4MXPY-16" target="hqUX3ECjdQeUj9T4MXPY-33">
          <mxGeometry relative="1" as="geometry">
            <mxPoint x="-130" y="666" as="sourcePoint" />
            <mxPoint x="-130" y="720" as="targetPoint" />
          </mxGeometry>
        </mxCell>
        <mxCell id="hqUX3ECjdQeUj9T4MXPY-122" value="" style="rounded=0;html=1;labelBackgroundColor=none;endArrow=none;edgeStyle=elbowEdgeStyle;elbow=vertical;startArrow=sysMLPackCont;startSize=12;exitX=0.5;exitY=1;exitDx=0;exitDy=0;entryX=0.5;entryY=0;entryDx=0;entryDy=0;" edge="1" parent="1" source="hqUX3ECjdQeUj9T4MXPY-16" target="hqUX3ECjdQeUj9T4MXPY-40">
          <mxGeometry relative="1" as="geometry">
            <mxPoint x="-130" y="666" as="sourcePoint" />
            <mxPoint x="100" y="720" as="targetPoint" />
          </mxGeometry>
        </mxCell>
        <mxCell id="hqUX3ECjdQeUj9T4MXPY-123" value="" style="rounded=0;html=1;labelBackgroundColor=none;endArrow=none;edgeStyle=elbowEdgeStyle;elbow=vertical;startArrow=sysMLPackCont;startSize=12;exitX=0.5;exitY=1;exitDx=0;exitDy=0;entryX=0.5;entryY=0;entryDx=0;entryDy=0;" edge="1" parent="1" source="hqUX3ECjdQeUj9T4MXPY-16" target="hqUX3ECjdQeUj9T4MXPY-47">
          <mxGeometry relative="1" as="geometry">
            <mxPoint x="-130" y="666" as="sourcePoint" />
            <mxPoint x="324" y="720" as="targetPoint" />
          </mxGeometry>
        </mxCell>
        <mxCell id="hqUX3ECjdQeUj9T4MXPY-127" value="" style="rounded=0;html=1;labelBackgroundColor=none;endArrow=none;edgeStyle=elbowEdgeStyle;elbow=vertical;startArrow=sysMLPackCont;startSize=12;exitX=0.5;exitY=1;exitDx=0;exitDy=0;entryX=0.5;entryY=0;entryDx=0;entryDy=0;" edge="1" parent="1" source="hqUX3ECjdQeUj9T4MXPY-16" target="hqUX3ECjdQeUj9T4MXPY-54">
          <mxGeometry relative="1" as="geometry">
            <mxPoint x="362" y="666" as="sourcePoint" />
            <mxPoint x="-380" y="720" as="targetPoint" />
          </mxGeometry>
        </mxCell>
        <mxCell id="hqUX3ECjdQeUj9T4MXPY-128" value="" style="rounded=0;html=1;labelBackgroundColor=none;endArrow=none;edgeStyle=elbowEdgeStyle;elbow=vertical;startArrow=sysMLPackCont;startSize=12;exitX=0.5;exitY=1;exitDx=0;exitDy=0;entryX=0.5;entryY=0;entryDx=0;entryDy=0;" edge="1" parent="1" source="hqUX3ECjdQeUj9T4MXPY-16" target="hqUX3ECjdQeUj9T4MXPY-61">
          <mxGeometry relative="1" as="geometry">
            <mxPoint x="346" y="666" as="sourcePoint" />
            <mxPoint x="345" y="720" as="targetPoint" />
          </mxGeometry>
        </mxCell>
        <mxCell id="hqUX3ECjdQeUj9T4MXPY-129" value="" style="rounded=0;html=1;labelBackgroundColor=none;endArrow=none;edgeStyle=elbowEdgeStyle;elbow=vertical;startArrow=sysMLPackCont;startSize=12;exitX=0.5;exitY=1;exitDx=0;exitDy=0;entryX=0.5;entryY=0;entryDx=0;entryDy=0;" edge="1" parent="1" source="hqUX3ECjdQeUj9T4MXPY-16" target="hqUX3ECjdQeUj9T4MXPY-89">
          <mxGeometry relative="1" as="geometry">
            <mxPoint x="346" y="666" as="sourcePoint" />
            <mxPoint x="510" y="720" as="targetPoint" />
          </mxGeometry>
        </mxCell>
        <mxCell id="hqUX3ECjdQeUj9T4MXPY-130" value="" style="rounded=0;html=1;labelBackgroundColor=none;endArrow=none;edgeStyle=elbowEdgeStyle;elbow=vertical;startArrow=sysMLPackCont;startSize=12;exitX=0.5;exitY=1;exitDx=0;exitDy=0;entryX=0.5;entryY=0;entryDx=0;entryDy=0;" edge="1" parent="1" source="hqUX3ECjdQeUj9T4MXPY-16" target="hqUX3ECjdQeUj9T4MXPY-96">
          <mxGeometry relative="1" as="geometry">
            <mxPoint x="346" y="666" as="sourcePoint" />
            <mxPoint x="675" y="720" as="targetPoint" />
          </mxGeometry>
        </mxCell>
        <mxCell id="hqUX3ECjdQeUj9T4MXPY-131" value="" style="rounded=0;html=1;labelBackgroundColor=none;endArrow=none;edgeStyle=elbowEdgeStyle;elbow=vertical;startArrow=sysMLPackCont;startSize=12;exitX=0.5;exitY=1;exitDx=0;exitDy=0;entryX=0.5;entryY=0;entryDx=0;entryDy=0;" edge="1" parent="1" source="hqUX3ECjdQeUj9T4MXPY-16" target="hqUX3ECjdQeUj9T4MXPY-103">
          <mxGeometry relative="1" as="geometry">
            <mxPoint x="346" y="666" as="sourcePoint" />
            <mxPoint x="835" y="720" as="targetPoint" />
          </mxGeometry>
        </mxCell>
        <mxCell id="hqUX3ECjdQeUj9T4MXPY-132" value="" style="rounded=0;html=1;labelBackgroundColor=none;endArrow=none;edgeStyle=elbowEdgeStyle;elbow=vertical;startArrow=sysMLPackCont;startSize=12;exitX=0.5;exitY=1;exitDx=0;exitDy=0;entryX=0.5;entryY=0;entryDx=0;entryDy=0;" edge="1" parent="1" source="hqUX3ECjdQeUj9T4MXPY-16" target="hqUX3ECjdQeUj9T4MXPY-112">
          <mxGeometry relative="1" as="geometry">
            <mxPoint x="346" y="666" as="sourcePoint" />
            <mxPoint x="985" y="720" as="targetPoint" />
          </mxGeometry>
        </mxCell>
        <mxCell id="hqUX3ECjdQeUj9T4MXPY-133" value="" style="rounded=0;html=1;labelBackgroundColor=none;endArrow=none;edgeStyle=elbowEdgeStyle;elbow=vertical;startArrow=sysMLPackCont;startSize=12;exitX=0.5;exitY=1;exitDx=0;exitDy=0;entryX=0.5;entryY=0;entryDx=0;entryDy=0;" edge="1" parent="1" source="hqUX3ECjdQeUj9T4MXPY-16" target="hqUX3ECjdQeUj9T4MXPY-68">
          <mxGeometry relative="1" as="geometry">
            <mxPoint x="346" y="666" as="sourcePoint" />
            <mxPoint x="1135" y="720" as="targetPoint" />
          </mxGeometry>
        </mxCell>
        <mxCell id="hqUX3ECjdQeUj9T4MXPY-134" value="" style="rounded=0;html=1;labelBackgroundColor=none;endArrow=none;edgeStyle=elbowEdgeStyle;elbow=vertical;startArrow=sysMLPackCont;startSize=12;exitX=0.5;exitY=1;exitDx=0;exitDy=0;entryX=0.5;entryY=0;entryDx=0;entryDy=0;" edge="1" parent="1" source="hqUX3ECjdQeUj9T4MXPY-73" target="hqUX3ECjdQeUj9T4MXPY-82">
          <mxGeometry relative="1" as="geometry">
            <mxPoint x="346" y="666" as="sourcePoint" />
            <mxPoint x="1290" y="720" as="targetPoint" />
          </mxGeometry>
        </mxCell>
        <mxCell id="hqUX3ECjdQeUj9T4MXPY-135" value="" style="rounded=0;html=1;labelBackgroundColor=none;endArrow=none;edgeStyle=elbowEdgeStyle;elbow=vertical;startArrow=sysMLPackCont;startSize=12;exitX=0.5;exitY=1;exitDx=0;exitDy=0;entryX=0.5;entryY=0;entryDx=0;entryDy=0;" edge="1" parent="1" source="hqUX3ECjdQeUj9T4MXPY-73" target="hqUX3ECjdQeUj9T4MXPY-75">
          <mxGeometry relative="1" as="geometry">
            <mxPoint x="1290" y="902" as="sourcePoint" />
            <mxPoint x="1145" y="950" as="targetPoint" />
          </mxGeometry>
        </mxCell>
      </root>
    </mxGraphModel>
  </diagram>
</mxfile>
